<?xml version="1.0" standalone="yes"?>

<svg version="1.1" viewBox="0.0 0.0 1002.8005249343832 230.0" fill="none" stroke="none" stroke-linecap="square" stroke-miterlimit="10" xmlns="http://www.w3.org/2000/svg" xmlns:xlink="http://www.w3.org/1999/xlink"><clipPath id="p.0"><path d="m0 0l1002.80054 0l0 230.0l-1002.80054 0l0 -230.0z" clip-rule="nonzero"></path></clipPath><g clip-path="url(#p.0)"><path fill="#000000" fill-opacity="0.0" d="m0 0l1002.80054 0l0 230.0l-1002.80054 0z" fill-rule="evenodd"></path><path fill="#ffdcb1" d="m-2.6264598 -2.1007874l1008.063 0l0 234.20473l-1008.063 0z" fill-rule="evenodd"></path><path fill="#fff262" d="m39.855774 115.8769l0 0c0 -45.06991 36.543434 -81.60629 81.62205 -81.60629l0 0c21.647514 0 42.408394 8.597782 57.715508 23.901932c15.307098 15.30415 23.90654 36.06103 23.90654 57.704365l0 0c0 45.069923 -36.54344 81.6063 -81.62205 81.6063l0 0c-45.078613 0 -81.62205 -36.536377 -81.62205 -81.6063z" fill-rule="evenodd"></path><path stroke="#0a2b33" stroke-width="8.0" stroke-linejoin="round" stroke-linecap="butt" d="m39.855774 115.8769l0 0c0 -45.06991 36.543434 -81.60629 81.62205 -81.60629l0 0c21.647514 0 42.408394 8.597782 57.715508 23.901932c15.307098 15.30415 23.90654 36.06103 23.90654 57.704365l0 0c0 45.069923 -36.54344 81.6063 -81.62205 81.6063l0 0c-45.078613 0 -81.62205 -36.536377 -81.62205 -81.6063z" fill-rule="evenodd"></path><path fill="#000000" fill-opacity="0.0" d="m220.69554 61.086613l-72.29921 0l0 0c-39.929756 0 -72.29922 25.530346 -72.29922 57.023624c0 31.493279 32.36946 57.02363 72.29922 57.02363l72.29921 0z" fill-rule="evenodd"></path><path stroke="#ffdcb1" stroke-width="24.0" stroke-linejoin="round" stroke-linecap="butt" d="m220.69554 61.086613l-72.29921 0l0 0c-39.929756 0 -72.29922 25.530346 -72.29922 57.023624c0 31.493279 32.36946 57.02363 72.29922 57.02363l72.29921 0z" fill-rule="evenodd"></path><path fill="#0a2b33" d="m422.40118 115.88294l0 0c0 -45.069916 36.543427 -81.6063 81.62204 -81.6063l0 0c21.647491 0 42.408417 8.597782 57.715485 23.901932c15.307129 15.304146 23.906555 36.061028 23.906555 57.70437l0 0c0 45.06991 -36.543457 81.6063 -81.62204 81.6063l0 0c-45.078613 0 -81.62204 -36.536392 -81.62204 -81.6063z" fill-rule="evenodd"></path><path stroke="#0a2b33" stroke-width="8.0" stroke-linejoin="round" stroke-linecap="butt" d="m422.40118 115.88294l0 0c0 -45.069916 36.543427 -81.6063 81.62204 -81.6063l0 0c21.647491 0 42.408417 8.597782 57.715485 23.901932c15.307129 15.304146 23.906555 36.061028 23.906555 57.70437l0 0c0 45.06991 -36.543457 81.6063 -81.62204 81.6063l0 0c-45.078613 0 -81.62204 -36.536392 -81.62204 -81.6063z" fill-rule="evenodd"></path><path fill="#fff262" d="m504.9235 197.48126l0 0c-29.266205 0.32273865 -56.465057 -15.045959 -71.285034 -40.279633c-14.819977 -25.233658 -14.992279 -56.469193 -0.4515686 -81.864746c14.54071 -25.395554 41.56836 -41.063263 70.836334 -41.063263z" fill-rule="evenodd"></path><path stroke="#0a2b33" stroke-width="8.0" stroke-linejoin="round" stroke-linecap="butt" d="m504.9235 197.48126l0 0c-29.266205 0.32273865 -56.465057 -15.045959 -71.285034 -40.279633c-14.819977 -25.233658 -14.992279 -56.469193 -0.4515686 -81.864746c14.54071 -25.395554 41.56836 -41.063263 70.836334 -41.063263z" fill-rule="evenodd"></path><path fill="#000000" fill-opacity="0.0" d="m358.66583 30.642519l163.24408 0l0 171.62206l-163.24408 0z" fill-rule="evenodd"></path><path fill="#ffdcb1" d="m411.545 182.59354q-5.078125 0 -8.59375 -3.515625q-3.515625 -3.515625 -3.515625 -8.59375l0 -111.6875q0 -5.046875 3.484375 -8.671875q3.5 -3.625 8.625 -3.625l73.78125 0q4.890625 0 8.3125 3.4375q3.4375 3.421875 3.4375 8.3125q0 4.953125 -3.453125 8.249996q-3.453125 3.296875 -8.296875 3.296875l-61.484375 0l0 33.015625l54.859375 0q4.890625 0 8.3125 3.421875q3.4375 3.40625 3.4375 8.3125q0 4.9375 -3.453125 8.25q-3.4375 3.3125 -8.296875 3.3125l-54.859375 0l0 33.1875l61.484375 0q4.890625 0 8.3125 3.421875q3.4375 3.40625 3.4375 8.3125q0 4.9375 -3.453125 8.25q-3.4375 3.3125 -8.296875 3.3125l-73.78125 0z" fill-rule="nonzero"></path><path fill="#fff262" d="m231.12546 115.88294l0 0c0 -45.069916 36.543427 -81.6063 81.62204 -81.6063l0 0c21.647522 0 42.408417 8.597782 57.715515 23.901932c15.307098 15.304146 23.906525 36.061028 23.906525 57.70437l0 0c0 45.06991 -36.543427 81.6063 -81.62204 81.6063l0 0c-45.078613 0 -81.62204 -36.536392 -81.62204 -81.6063z" fill-rule="evenodd"></path><path stroke="#0a2b33" stroke-width="8.0" stroke-linejoin="round" stroke-linecap="butt" d="m231.12546 115.88294l0 0c0 -45.069916 36.543427 -81.6063 81.62204 -81.6063l0 0c21.647522 0 42.408417 8.597782 57.715515 23.901932c15.307098 15.304146 23.906525 36.061028 23.906525 57.70437l0 0c0 45.06991 -36.543427 81.6063 -81.62204 81.6063l0 0c-45.078613 0 -81.62204 -36.536392 -81.62204 -81.6063z" fill-rule="evenodd"></path><path fill="#0a2b33" d="m314.084 197.48622l0 0c44.339355 0 80.28348 -36.536392 80.28348 -81.6063c0 -45.069916 -35.944122 -81.6063 -80.28348 -81.6063l0 0c27.690216 17.57883 44.513977 48.42138 44.513977 81.6063c0 33.184914 -16.823761 64.02747 -44.513977 81.6063z" fill-rule="evenodd"></path><path stroke="#0a2b33" stroke-width="8.0" stroke-linejoin="round" stroke-linecap="butt" d="m314.084 197.48622l0 0c44.339355 0 80.28348 -36.536392 80.28348 -81.6063c0 -45.069916 -35.944122 -81.6063 -80.28348 -81.6063l0 0c27.690216 17.57883 44.513977 48.42138 44.513977 81.6063c0 33.184914 -16.823761 64.02747 -44.513977 81.6063z" fill-rule="evenodd"></path><path fill="#000000" fill-opacity="0.0" d="m274.07635 39.480232l151.2756 0l0 153.92126l-151.2756 0z" fill-rule="evenodd"></path><path fill="#ffdcb1" d="m329.9878 182.58086q-6.359375 0 -10.890625 -4.53125q-4.53125 -4.53125 -4.53125 -10.890625l0 -109.29687q0 -5.046875 3.484375 -8.671875q3.5 -3.625 8.625 -3.625q5.078125 0 8.6875 3.609375q3.609375 3.609375 3.609375 8.6875l0 100.31249l56.34375 0q5.0625 0 8.6718445 3.609375q3.609375 3.609375 3.609375 8.6875q0 5.125 -3.625 8.625q-3.6249695 3.484375 -8.6562195 3.484375l-65.328125 0z" fill-rule="nonzero"></path><path fill="#000000" fill-opacity="0.0" d="m604.1371 61.086613l-49.370117 0l0 0c-27.266296 0 -49.370056 13.635929 -49.370056 30.456692c0 16.82077 22.10376 30.456696 49.370056 30.456696l49.370117 0z" fill-rule="evenodd"></path><path stroke="#ffdcb1" stroke-width="24.0" stroke-linejoin="round" stroke-linecap="butt" d="m604.1371 61.086613l-49.370117 0l0 0c-27.266296 0 -49.370056 13.635929 -49.370056 30.456692c0 16.82077 22.10376 30.456696 49.370056 30.456696l49.370117 0z" fill-rule="evenodd"></path><path fill="#000000" fill-opacity="0.0" d="m462.17508 250.89775l0 -151.2441l153.95273 0l0 151.2441z" fill-rule="evenodd"></path><path fill="#ffdcb1" d="m606.2133 171.54259q0 5.078125 -3.515625 8.59375q-3.515625 3.515625 -8.59375 3.515625l-113.53125 0q-5.046875 0 -8.671875 -3.484375q-3.625 -3.5 -3.625 -8.625q0 -5.078125 3.609375 -8.6875q3.609375 -3.609375 8.6875 -3.609375l113.53125 0q5.125 0 8.625 3.625q3.484375 3.625 3.484375 8.671875z" fill-rule="nonzero"></path><path fill="#0a2b33" d="m804.9466 115.87992l0 0c0 -45.069916 36.543396 -81.6063 81.62201 -81.6063l0 0c21.647522 0 42.408447 8.597782 57.715515 23.901932c15.307129 15.304153 23.906555 36.061035 23.906555 57.70437l0 0c0 45.06991 -36.543457 81.6063 -81.62207 81.6063l0 0c-45.078613 0 -81.62201 -36.536392 -81.62201 -81.6063z" fill-rule="evenodd"></path><path stroke="#0a2b33" stroke-width="3.0" stroke-linejoin="round" stroke-linecap="butt" d="m804.9466 115.87992l0 0c0 -45.069916 36.543396 -81.6063 81.62201 -81.6063l0 0c21.647522 0 42.408447 8.597782 57.715515 23.901932c15.307129 15.304153 23.906555 36.061035 23.906555 57.70437l0 0c0 45.06991 -36.543457 81.6063 -81.62207 81.6063l0 0c-45.078613 0 -81.62201 -36.536392 -81.62201 -81.6063z" fill-rule="evenodd"></path><path fill="#0a2b33" d="m815.2811 116.831665l0 0c0 -38.74691 31.516296 -70.157486 70.39368 -70.157486l0 0c18.669556 0 36.574463 7.391571 49.77588 20.548649c13.201355 13.157082 20.617798 31.001915 20.617798 49.608833l0 0c0 38.746902 -31.516296 70.157486 -70.39368 70.157486l0 0c-38.87738 0 -70.39368 -31.410583 -70.39368 -70.157486z" fill-rule="evenodd"></path><path stroke="#fff262" stroke-width="8.0" stroke-linejoin="round" stroke-linecap="butt" d="m815.2811 116.831665l0 0c0 -38.74691 31.516296 -70.157486 70.39368 -70.157486l0 0c18.669556 0 36.574463 7.391571 49.77588 20.548649c13.201355 13.157082 20.617798 31.001915 20.617798 49.608833l0 0c0 38.746902 -31.516296 70.157486 -70.39368 70.157486l0 0c-38.87738 0 -70.39368 -31.410583 -70.39368 -70.157486z" fill-rule="evenodd"></path><path fill="#000000" fill-opacity="0.0" d="m741.48346 30.642519l163.24408 0l0 171.62206l-163.24408 0z" fill-rule="evenodd"></path><path fill="#ffdcb1" d="m794.3626 182.59354q-5.078125 0 -8.59375 -3.515625q-3.515625 -3.515625 -3.515625 -8.59375l0 -111.6875q0 -5.046875 3.484375 -8.671875q3.5 -3.625 8.625 -3.625l73.78125 0q4.890625 0 8.3125 3.4375q3.4375 3.421875 3.4375 8.3125q0 4.953125 -3.453125 8.249996q-3.453125 3.296875 -8.296875 3.296875l-61.484375 0l0 33.015625l54.859375 0q4.890625 0 8.3125 3.421875q3.4375 3.40625 3.4375 8.3125q0 4.9375 -3.453125 8.25q-3.4375 3.3125 -8.296875 3.3125l-54.859375 0l0 33.1875l61.484375 0q4.890625 0 8.3125 3.421875q3.4375 3.40625 3.4375 8.3125q0 4.9375 -3.453125 8.25q-3.4375 3.3125 -8.296875 3.3125l-73.78125 0z" fill-rule="nonzero"></path><path fill="#0a2b33" d="m613.6739 115.8769l0 0c0 -45.06991 36.543396 -81.60629 81.62201 -81.60629l0 0c21.647522 0 42.408447 8.597782 57.715515 23.901932c15.307129 15.30415 23.906555 36.06103 23.906555 57.704365l0 0c0 45.069923 -36.543457 81.6063 -81.62207 81.6063l0 0c-45.078613 0 -81.62201 -36.536377 -81.62201 -81.6063z" fill-rule="evenodd"></path><path stroke="#0a2b33" stroke-width="8.0" stroke-linejoin="round" stroke-linecap="butt" d="m613.6739 115.8769l0 0c0 -45.06991 36.543396 -81.60629 81.62201 -81.60629l0 0c21.647522 0 42.408447 8.597782 57.715515 23.901932c15.307129 15.30415 23.906555 36.06103 23.906555 57.704365l0 0c0 45.069923 -36.543457 81.6063 -81.62207 81.6063l0 0c-45.078613 0 -81.62201 -36.536377 -81.62201 -81.6063z" fill-rule="evenodd"></path><path fill="#fff262" d="m702.71326 197.49226l0 0c-49.17511 0 -89.03937 -36.536392 -89.03937 -81.60631c0 -45.069916 39.864258 -81.60629 89.03937 -81.60629l0 0c-46.472595 46.067677 -46.472595 117.14491 0 163.2126z" fill-rule="evenodd"></path><path stroke="#0a2b33" stroke-width="8.0" stroke-linejoin="round" stroke-linecap="butt" d="m702.71326 197.49226l0 0c-49.17511 0 -89.03937 -36.536392 -89.03937 -81.60631c0 -45.069916 39.864258 -81.60629 89.03937 -81.60629l0 0c-46.472595 46.067677 -46.472595 117.14491 0 163.2126z" fill-rule="evenodd"></path><path fill="#000000" fill-opacity="0.0" d="m591.62036 137.13318l0 -151.2441l153.95276 0l0 151.2441z" fill-rule="evenodd"></path><path fill="#ffdcb1" d="m735.6586 57.77801q0 5.078125 -3.515625 8.593754q-3.515625 3.515625 -8.59375 3.515625l-113.53125 0q-5.046875 0 -8.671875 -3.484375q-3.625 -3.5000038 -3.625 -8.625004q0 -5.078125 3.609375 -8.6875q3.609375 -3.609375 8.6875 -3.609375l113.53125 0q5.125 0 8.625 3.625q3.484375 3.625 3.484375 8.671875z" fill-rule="nonzero"></path><path fill="#000000" fill-opacity="0.0" d="m646.8304 137.13318l0 -151.2441l153.95276 0l0 151.2441z" fill-rule="evenodd"></path><path fill="#ffdcb1" d="m790.86865 57.77801q0 5.078125 -3.515625 8.593754q-3.515625 3.515625 -8.59375 3.515625l-113.53125 0q-5.046875 0 -8.671875 -3.484375q-3.625 -3.5000038 -3.625 -8.625004q0 -5.078125 3.609375 -8.6875q3.609375 -3.609375 8.6875 -3.609375l113.53125 0q5.125 0 8.625 3.625q3.484375 3.625 3.484375 8.671875z" fill-rule="nonzero"></path><path fill="#000000" fill-opacity="0.0" d="m619.6584 39.735855l151.27557 0l0 153.92126l-151.27557 0z" fill-rule="evenodd"></path><path fill="#ffdcb1" d="m699.0293 183.75836q-5.078125 0 -8.59375 -3.515625q-3.515625 -3.515625 -3.515625 -8.59375l0 -113.53125q0 -5.046875 3.484375 -8.671875q3.5 -3.625 8.625 -3.625q5.078125 0 8.6875 3.609375q3.609375 3.609375 3.609375 8.6875l0 113.53125q0 5.125 -3.625 8.625q-3.625 3.484375 -8.671875 3.484375z" fill-rule="nonzero"></path><path fill="#000000" fill-opacity="0.0" d="m166.66585 30.642519l163.2441 0l0 171.62206l-163.2441 0z" fill-rule="evenodd"></path><path fill="#ffdcb1" d="m219.54501 182.59354q-5.078125 0 -8.59375 -3.515625q-3.515625 -3.515625 -3.515625 -8.59375l0 -111.6875q0 -5.046875 3.484375 -8.671875q3.5 -3.625 8.625 -3.625l73.78125 0q4.890625 0 8.3125 3.4375q3.4375 3.421875 3.4375 8.3125q0 4.953125 -3.453125 8.249996q-3.453125 3.296875 -8.296875 3.296875l-61.484375 0l0 33.015625l54.859375 0q4.890625 0 8.3125 3.421875q3.4375 3.40625 3.4375 8.3125q0 4.9375 -3.453125 8.25q-3.4375 3.3125 -8.296875 3.3125l-54.859375 0l0 33.1875l61.484375 0q4.890625 0 8.3125 3.421875q3.4375 3.40625 3.4375 8.3125q0 4.9375 -3.453125 8.25q-3.4375 3.3125 -8.296875 3.3125l-73.78125 0z" fill-rule="nonzero"></path><path fill="#000000" fill-opacity="0.0" d="m199.447 92.21032c5.116333 17.768082 4.295578 36.7165 -2.338028 53.977318l-79.5578 -30.473724z" fill-rule="evenodd"></path><path fill="#000000" fill-opacity="0.0" d="m199.447 92.21032c5.116333 17.768082 4.295578 36.7165 -2.338028 53.977318" fill-rule="evenodd"></path><path stroke="#0a2b33" stroke-width="8.0" stroke-linejoin="round" stroke-linecap="butt" d="m199.447 92.21032c5.116333 17.768082 4.295578 36.7165 -2.338028 53.977318" fill-rule="evenodd"></path></g></svg>

